<svg xmlns="http://www.w3.org/2000/svg" viewBox="0 0 750.02 121.14"><defs><style>.cls-1{fill:#63b3ed;}.cls-2{fill:#fff;}</style></defs><g id="Layer_11" data-name="Layer 11"><circle class="cls-1" cx="695.38" cy="58.28" r="6.52"/><circle class="cls-1" cx="558.7" cy="88.59" r="6.52"/><path class="cls-2" d="M267.64,34.28l-23.39.53c-1.49,0-2.18.69-2.14,2.1l2.27,57.57c0,1.38.93,2.07,2.67,2.11l3.88.08c1.5,0,2.31-.89,2.35-2.67l.28-10.92a1.59,1.59,0,0,1,1.86-1.78l9.87.36c1,.12,1.62-.45,1.7-1.62l.45-6.27c.08-1.58-.73-2.31-2.39-2.18l-8.33.44c-2,.08-2.92-.85-2.84-2.79l.57-21.81c0-1.37,1-2,2.75-1.94l10,.32c1.82.08,2.8-.64,2.84-2.14l.4-6.76C270.55,35.09,269.62,34.24,267.64,34.28Z"/><path class="cls-2" d="M303.12,33.76a26.44,26.44,0,0,0-8.74.52,16.31,16.31,0,0,0-5.14,2.15c-1,.69-1.45.36-1.41-1a2.22,2.22,0,0,0-2.51-2.63h-5.63c-2.26,0-3.39,1-3.35,3l1.45,55.59c0,2.1.93,3.19,2.71,3.36l2.47.12c1.82.16,2.75-.69,2.83-2.55l.21-7c.12-2.27,1.13-3.2,3.11-2.83a20.58,20.58,0,0,1,5.54,1.86c2.75,1.5,4.25,4.12,4.49,7.89.13,1.82,1,2.71,2.55,2.63l4.74-.2c1.05,0,1.57-.81,1.53-2.27,0-1.26-.12-2.55-.24-3.93A14.8,14.8,0,0,0,306,82a18.35,18.35,0,0,0-3.48-4.37A28.61,28.61,0,0,0,300,75.67l-.93-.57c-.81-.44-.24-1,1.66-1.57a17.41,17.41,0,0,0,8.54-6.27,24.8,24.8,0,0,0,5-13.8,26.51,26.51,0,0,0-2.31-13A11,11,0,0,0,303.12,33.76Zm-.81,20c-.65,4-2,6.88-4.05,8.7a13.78,13.78,0,0,1-6.55,3.4c-.77.16-1.42.28-2.06.36-2.11.33-3.12-.4-3-2.18l.57-11.57c.08-2.71,1-4.61,2.71-5.7,3.44-2.07,6.35-2.68,8.7-1.83C301.54,46,302.76,48.93,302.31,53.74Z"/><path class="cls-2" d="M336.33,33.92c-7,.32-11.81,3.4-14.44,9.14a37.3,37.3,0,0,0-3.52,15.5c0,1.74.89,2.59,2.75,2.55l6-.17c1.29,0,2-.84,2.06-2.46,0-1.14.08-2.39.21-3.72a15.73,15.73,0,0,1,1.78-6.23,5.66,5.66,0,0,1,4.85-3c2.79.12,4.61,1.9,5.46,5.26a39.45,39.45,0,0,1,1.22,10.16l0,4.32a2.32,2.32,0,0,1-2.55,2.55,41.5,41.5,0,0,0-5.79.53,25.53,25.53,0,0,0-6.11,1.74c-5.78,1.9-8.82,5.46-9.06,10.76a12.1,12.1,0,0,0,3.16,8.33,11.94,11.94,0,0,0,8.53,4.33h17.44c2.18,0,3.28-1.09,3.28-3.23V57.38C351.63,41.2,346.53,33.35,336.33,33.92Zm4.13,50.65c-1.37,0-2.79-.12-4.33-.24a10.82,10.82,0,0,1-3.72-.73,2.17,2.17,0,0,1-1.21-2,2.52,2.52,0,0,1,1.57-2.27,9.23,9.23,0,0,1,3-1,6.25,6.25,0,0,0,.85-.08c1.41-.2,2.91-.36,4.49-.48,1.25-.08,1.9.56,1.94,1.9l0,3.15C343.05,84,342.2,84.57,340.46,84.57Z"/><path class="cls-2" d="M407.46,39.71c-1.7-3.61-4.94-5.55-9.71-5.79a22.56,22.56,0,0,0-5.67.49,9.61,9.61,0,0,0-5,2.54c-1.22,1.14-2.19,1.62-2.92,1.54a2.64,2.64,0,0,1-1.94-1.33,8.05,8.05,0,0,0-4.24-3.4A21,21,0,0,0,370.6,33c-8.86,1.13-13,7.65-12.3,19.5l.41,38.76c0,1.49.89,2.14,2.67,2l6.55-.49a1.77,1.77,0,0,0,1.82-2.14l-.36-38.43a7.56,7.56,0,0,1,1.05-4.33,3.8,3.8,0,0,1,3.68-1.9,5.52,5.52,0,0,1,4,1.62,4.67,4.67,0,0,1,1.33,3.51L379,87.93c0,1.62.93,2.39,2.83,2.31l6.75-.37a1.83,1.83,0,0,0,1.91-2.1l-1.06-37.95a4.15,4.15,0,0,1,1.91-3.72A7.49,7.49,0,0,1,396.13,45c1.86.24,3.07,1,3.68,2.26a9.54,9.54,0,0,1,.85,4l.41,39.08a1.61,1.61,0,0,0,1.74,1.86l5.62.32c1.21,0,1.78-.57,1.78-1.94l-.16-37.5A30.56,30.56,0,0,0,407.46,39.71Z"/><path class="cls-2" d="M438,34.85a21.88,21.88,0,0,0-14.56,3.68c-4.41,2.91-6.92,7.28-7.49,13a183.26,183.26,0,0,0,1.22,25.24q3.89,16.7,19.13,16.67c5.79,0,9.92-.85,12.42-2.63a13.44,13.44,0,0,0,4-4.16c.85-1.3.4-2.15-1.26-2.55L446.34,83a5.2,5.2,0,0,0-3.69.53,9.09,9.09,0,0,1-8,.45,9.83,9.83,0,0,1-5-4.58c-1.17-2.1-.53-3.11,2-3.15L449.78,76c2.58,0,4-1.38,4.36-4,.13-1,.21-1.94.33-3a60.49,60.49,0,0,0-.16-21.57Q452.3,36.91,438,34.85Zm7.61,29.41c0,1.62-.81,2.47-2.27,2.47l-12.86-.08c-1.86,0-2.83-1-2.92-3,0-1.33,0-2.67.09-3.92A11.72,11.72,0,0,1,430.8,52a8.91,8.91,0,0,1,6.43-2.79,6.66,6.66,0,0,1,3,.72,6.51,6.51,0,1,0,5.4,10.54c0,.08,0,.15,0,.23C445.69,61.88,445.69,63.05,445.65,64.26Z"/><path class="cls-2" d="M500.87,42.94l.2-6c.13-1.82-.8-2.75-2.71-2.71l-37.5.53c-2.27,0-3.32.93-3.2,2.79l.53,5.79A2.6,2.6,0,0,0,461,46l7.93-.09a2.18,2.18,0,0,1,2.51,2.39L472.71,91c.09,2,1,3,2.63,3.08l3.4.08c2,0,3-.85,3-2.67L482.55,48c0-1.34.84-2.07,2.42-2.15l12.71-.28C499.78,45.49,500.83,44.64,500.87,42.94Z"/><path class="cls-2" d="M519.64,34l-6.23,0a1.87,1.87,0,0,0-2,2.19l.89,33.45c0,1.46-.69,2.15-2.14,2.07L502,71.26c-1.25-.08-1.86-.89-1.82-2.34l.37-13.19c0-2-.81-3-2.59-3.16l-5.46-.36c-1.66-.12-2.51.72-2.51,2.59l.65,36.45c0,1.13.56,1.74,1.61,1.82l5.22.28c1.3.08,2-.44,2-1.54l.32-8.33c0-1,.61-1.5,1.78-1.54l8.7-.36c1.53-.08,2.34.48,2.38,1.62l.29,7.68c0,1.38.69,2.07,1.94,2.07h3.84c1.54,0,2.35-.61,2.35-1.91l.85-54.69C521.91,34.77,521.18,34,519.64,34Z"/><path class="cls-2" d="M564.51,38.9a10.71,10.71,0,0,0-8-5.14,26.08,26.08,0,0,0-8.7.52,15.81,15.81,0,0,0-5.3,2.27c-.89.61-1.29.44-1.25-.57v-.77a2.2,2.2,0,0,0-2.51-2.46h-7.61c-2.3,0-3.44,1-3.39,2.91l2,56.4c.08,1.62.77,2.46,2.06,2.54l5.87.29c1.33,0,2-.69,2.06-2.23l1-41.06a5.2,5.2,0,0,1,2.83-4.85c5.14-2.88,8.74-2.84,10.85.08a5.93,5.93,0,0,0,5.09,2.83l4.66-.12c2.59-.08,3.64-1.26,3.11-3.6A22.17,22.17,0,0,0,564.51,38.9Z"/><path class="cls-2" d="M592.83,34.85a23.13,23.13,0,0,0-13.47,4.09c-3.89,2.75-6.07,6.92-6.56,12.62A183.26,183.26,0,0,0,574,76.8q1.88,16.7,17.11,16.67c10.28,0,16.26-5.46,18-16.46a128.3,128.3,0,0,0,1.7-23.67Q608.22,34.83,592.83,34.85ZM599.59,74c-.47,3.28-1.48,5.68-3,7.24a6.45,6.45,0,0,0,.51-2.52,6.52,6.52,0,0,0-13,0,16.14,16.14,0,0,1-1-4.75,113.79,113.79,0,0,1-.53-14.2c.25-3.2,1.3-5.58,3.16-7.12A9.59,9.59,0,0,1,592,50.22c4.86,0,7.65,3.48,8.46,10.48A86,86,0,0,1,599.59,74Z"/><path class="cls-2" d="M665.21,36.15l-3.56.32c-2.31.2-3.44,1.29-3.36,3.36L659,77.69a7.7,7.7,0,0,1-.77,3.89,4.26,4.26,0,0,1-3.64,2.26,7.6,7.6,0,0,1-4.86-1.09,4.16,4.16,0,0,1-1.9-3.64L648.58,52c0-2.42-1.13-3.56-3.36-3.39l-5.18.28c-2.3.16-3.44,1.38-3.31,3.72l1.17,25.17a4.56,4.56,0,0,1-1.34,3.43,5.88,5.88,0,0,1-4,1.66,3.83,3.83,0,0,1-3.68-1.9,8,8,0,0,1-1-4.41l.36-36.17c0-2.87-1.13-4.37-3.36-4.49l-4.41-.28c-2.18-.12-3.28.81-3.28,2.87l-.48,37.75c-.12,5.7.77,10.44,2.63,14.2s5.14,5.74,9.75,6a13.29,13.29,0,0,0,7.52-1.74,13.12,13.12,0,0,0,4.13-4c.93-1.37,1.74-2,2.43-1.94s1.49.77,2.43,2.14a8.28,8.28,0,0,0,3.6,3.12c1.61.81,4,1.13,7,.93,4.81-.44,8-2.43,9.75-6s2.54-7.89,2.54-13.19V39.71C668.44,37.16,667.35,36,665.21,36.15Z"/><path class="cls-2" d="M702.91,33.48l-26.37.24c-1.58,0-2.35.77-2.31,2.26l1.5,57.09c0,1.45.72,2.18,2.06,2.22,8.17-.12,16.38-.24,24.6-.44,1.57,0,2.3-.73,2.18-2.15L704,87.28a2.23,2.23,0,0,0-2.55-2.3L687,85.14c-1.33,0-2-.61-1.94-1.78l.12-2.59a1.91,1.91,0,0,1,2.31-2l11.85.44a1.93,1.93,0,0,0,2.23-2.18V72.72c0-1.46-.85-2.19-2.51-2.15H688.47c-1.9,0-2.87-.93-2.83-2.71l.73-20c0-1.7,1-2.55,2.87-2.47l12.82.57c2.07,0,3.12-.85,3.2-2.67l.24-7.49C705.54,34.24,704.65,33.43,702.91,33.48Z"/><path class="cls-2" d="M745.89,32.75h-5.62a2.22,2.22,0,0,0-2.51,2.63c0,1.41-.44,1.74-1.41,1a16.31,16.31,0,0,0-5.14-2.15,26.44,26.44,0,0,0-8.74-.52,11,11,0,0,0-8.86,6.67,26.51,26.51,0,0,0-2.31,13,24.8,24.8,0,0,0,5,13.8,17.41,17.41,0,0,0,8.54,6.27c1.9.6,2.46,1.13,1.66,1.57l-.94.57a30.22,30.22,0,0,0-2.46,1.94A18.35,18.35,0,0,0,719.64,82a14.8,14.8,0,0,0-1.78,6.39c-.12,1.38-.21,2.67-.25,3.93,0,1.46.49,2.22,1.54,2.27l4.74.2c1.57.08,2.42-.81,2.54-2.63.25-3.77,1.74-6.39,4.49-7.89a20.75,20.75,0,0,1,5.55-1.86c2-.37,3,.56,3.11,2.83l.2,7c.09,1.86,1,2.71,2.84,2.55l2.46-.12c1.78-.17,2.72-1.26,2.72-3.36l1.45-55.59C749.29,33.8,748.16,32.79,745.89,32.75ZM735.94,66.2c-.65-.08-1.29-.2-2.06-.36a13.85,13.85,0,0,1-6.56-3.4,10.47,10.47,0,0,1-.81-.82,7,7,0,0,0,1,.08,6.52,6.52,0,1,0-4.25-11.45c.34-2.77,1.55-4.56,3.67-5.33,2.35-.85,5.26-.24,8.7,1.83,1.74,1.09,2.63,3,2.71,5.7L738.94,64C739.06,65.8,738.05,66.53,735.94,66.2Z"/><circle class="cls-1" cx="265.55" cy="59.83" r="6.52"/><path class="cls-1" d="M213.73,39.94a23.53,23.53,0,0,0-21.67-11.22,25.49,25.49,0,0,0-5.05.69c-1,.23-1.51.42-1.51.42,0-.18,0-.35,0-.53a22,22,0,0,0-.3-3.65,22.42,22.42,0,0,0-7.36-13.26c.06.7.1,1.4.1,2.11a22.42,22.42,0,0,1-6.09,15.38,22.84,22.84,0,0,1-1.66,1.6s0-.08,0-.12a22.52,22.52,0,0,0-6.4-8.27,22.06,22.06,0,0,1,.59,5.11,22.43,22.43,0,0,1-8.54,17.63A41.37,41.37,0,0,1,168.2,73.61a37.27,37.27,0,0,1-6.13,22.23c1.45.12,2.92.18,4.4.18,1.76,0,3.5-.08,5.22-.25a52.79,52.79,0,0,0,9-1.68,47.47,47.47,0,0,0,6.9-2.43c1.51-.65,3-1.37,4.42-2.16,1.07-.58,2.12-1.21,3.14-1.86a53,53,0,0,0,5.15-3.76C207.76,78.15,225.76,58.42,213.73,39.94ZM174.84,56.81a9.47,9.47,0,0,1-.86-3.42,9.33,9.33,0,0,1,1.1-5.06,9.53,9.53,0,0,1,16.51-.55h0q-.95,0-1.92,0A18.59,18.59,0,0,0,174.84,56.81Zm25.71,14.53s-7-6.28-14.54-6.63c0,0,8-3.29,12.47-10.45a4.69,4.69,0,0,1,3.14,4.89,4.56,4.56,0,0,1-2.93,4.22S204.7,65.81,200.55,71.34ZM210.86,50a15.73,15.73,0,0,0-6.11-2.35,15.43,15.43,0,0,0-3.41-.15c-.36,0-.72.06-1.08.1a5.45,5.45,0,0,1,4.15-4.12,4.38,4.38,0,0,1,.82-.11A5.45,5.45,0,0,1,210.86,50Z"/><path class="cls-1" d="M207.61,96.1a20.75,20.75,0,0,0,0,6.79,20.27,20.27,0,0,1-11.71-9A50.43,50.43,0,0,0,200.55,91c.42-.28.83-.58,1.24-.88a52.84,52.84,0,0,0,8.65-7.92c.85,1,1.72,2,2.63,3,.38.42.77.83,1.17,1.24A65.3,65.3,0,0,0,228,97.35a20.22,20.22,0,0,1-20.4-1.25Z"/><path class="cls-2" d="M13.27,58.31c-9.71,5.61-14.79,15-11.33,21s14.13,6.29,23.84.68S40.57,65,37.11,59,23,52.7,13.27,58.31Z"/><path class="cls-2" d="M160.23,73.61c-1-20.09-15.57-38.15-43.47-41.57S63,43.81,44.62,61.08c-9.49,21.26,2.47,41.57,2.47,41.57s26.39,19.56,63,16.71C141.15,117,161.37,96.2,160.23,73.61Zm-48.17-19c1.14-4.36,6.94-6.62,13-5.06s10,6.37,8.84,10.73-6.93,6.63-13,5.06S110.93,58.92,112.06,54.56ZM64.65,73.23c-3.88-4.72.11-14.41,8.9-21.62s19.07-9.24,23-4.51-.1,14.4-8.9,21.62S68.53,78,64.65,73.23ZM140.3,85.76c-1.9,2.66-9.62,17.15-33.41,18.79C88,105.86,76.33,99,74.49,97c-1.77-4-3.42-12.72-3.42-12.72A104.85,104.85,0,0,0,106.89,86c24.67-2.91,36.82-15,36.82-15S142.19,83.1,140.3,85.76Z"/><path class="cls-2" d="M133.77,29.85c4.35-2.51,4.57-10.28.49-17.34S123.35,1.75,119,4.26s-4.57,10.28-.49,17.35S129.42,32.37,133.77,29.85Z"/></g></svg>